<svg width="53" height="56" viewBox="0 0 53 56" fill="none" xmlns="http://www.w3.org/2000/svg">
<path d="M8.72514 45.3204C4.33622 41.0282 1.63003 35.3058 1.09693 29.1902C0.563841 23.0745 2.23912 16.9702 5.8192 11.9833C9.39928 6.9965 14.6473 3.45707 20.6123 2.00641C26.5773 0.555757 32.8646 1.28985 38.335 4.07567" stroke="#3C6382" stroke-miterlimit="10"/>
<path d="M33.1607 6.33661C24.5651 3.81954 17.2111 5.63072 11.0988 11.7702C7.2352 15.5865 5.499 20.5734 5.18437 26.3265C5.04743 33.1408 7.84653 38.4652 12.5204 43.0559" stroke="#FBB040" stroke-width="2" stroke-miterlimit="10"/>
<path d="M33.2324 5.63002L29.8372 4.82056L29.2701 7.19923L32.6653 8.00869L33.2324 5.63002Z" fill="#FBB040"/>
<path d="M26.1497 5.0424L22.6769 5.39209L22.9219 7.82513L26.3947 7.47544L26.1497 5.0424Z" fill="#FBB040"/>
<path d="M18.5113 6.40387L15.403 7.9917L16.5155 10.1694L19.6237 8.58152L18.5113 6.40387Z" fill="#FBB040"/>
<path d="M12.4645 10.1556L10.0961 12.7195L11.8924 14.3788L14.2607 11.8149L12.4645 10.1556Z" fill="#FBB040"/>
<path d="M7.68391 15.5299L6.57642 18.8398L8.89539 19.6158L10.0029 16.3058L7.68391 15.5299Z" fill="#FBB040"/>
<path d="M5.61135 21.756L5.17511 25.219L7.60128 25.5246L8.03752 22.0617L5.61135 21.756Z" fill="#FBB040"/>
<path d="M5.05095 28.3595L5.40063 31.8323L7.83367 31.5873L7.48399 28.1145L5.05095 28.3595Z" fill="#FBB040"/>
<path d="M6.76967 35.629L8.62494 38.5854L10.6962 37.2856L8.84095 34.3292L6.76967 35.629Z" fill="#FBB040"/>
<path d="M9.93222 40.6983L12.2225 43.332L14.0678 41.7274L11.7775 39.0936L9.93222 40.6983Z" fill="#FBB040"/>
<path d="M13.9878 33.8581C15.7435 33.8581 17.1668 32.4349 17.1668 30.6792C17.1668 28.9235 15.7435 27.5002 13.9878 27.5002C12.2322 27.5002 10.8089 28.9235 10.8089 30.6792C10.8089 32.4349 12.2322 33.8581 13.9878 33.8581Z" fill="#3C6382"/>
<path d="M43.2158 7.31812C47.7734 11.166 50.8497 16.4802 51.9167 22.3487C52.9838 28.2172 51.975 34.2742 49.0635 39.4801C46.1521 44.686 41.5195 48.7163 35.9608 50.8793C30.402 53.0423 24.2638 53.2032 18.5994 51.3343" stroke="#3C6382" stroke-miterlimit="10"/>
<path d="M12.8955 49.471L8.72211 45.314" stroke="#3C6382" stroke-miterlimit="10"/>
<path d="M50.0138 16.2664L44.3178 17.9455L41.4421 28.3186" stroke="#3C6382" stroke-width="0.5" stroke-miterlimit="10"/>
<path d="M35.9756 20.3208L38.4976 14.6248H44.236" stroke="#3C6382" stroke-width="0.5" stroke-miterlimit="10"/>
<path d="M41.0735 30.6791H46.2674L48.866 24.0425" stroke="#3C6382" stroke-width="0.5" stroke-miterlimit="10"/>
<path d="M51.2269 34.4191L48.0675 32.4758L43.5844 36.9753" stroke="#3C6382" stroke-width="0.5" stroke-miterlimit="10"/>
<path d="M33.4523 36.9605L39.6374 36.0264L41.8235 40.7769" stroke="#3C6382" stroke-width="0.5" stroke-miterlimit="10"/>
<path d="M36.9918 50.4521L38.0384 43.0558L35.0257 39.4041" stroke="#3C6382" stroke-width="0.5" stroke-miterlimit="10"/>
<path d="M41.7291 47.7316L33.8518 44.9292L30.9924 52.2522" stroke="#3C6382" stroke-width="0.5" stroke-miterlimit="10"/>
<path d="M26.431 42.6582V47.1576L23.8015 50.0545" stroke="#3C6382" stroke-width="0.5" stroke-miterlimit="10"/>
<path d="M35.0255 40.511C35.6368 40.511 36.1324 40.0154 36.1324 39.404C36.1324 38.7927 35.6368 38.2971 35.0255 38.2971C34.4142 38.2971 33.9186 38.7927 33.9186 39.404C33.9186 40.0154 34.4142 40.511 35.0255 40.511Z" fill="#3C6382"/>
<path d="M43.2991 26.8318C45.0548 26.8318 46.4781 25.4085 46.4781 23.6528C46.4781 21.8971 45.0548 20.4739 43.2991 20.4739C41.5434 20.4739 40.1202 21.8971 40.1202 23.6528C40.1202 25.4085 41.5434 26.8318 43.2991 26.8318Z" fill="#FBB040"/>
<path d="M11.0842 23.6644C15.0619 24.2562 27.6163 16.1865 29.3835 14.2971C33.7427 10.3846 37.4564 5.50528 40.7543 0L41.7325 0.489069C41.0331 1.53241 40.006 3.11211 38.8486 5.07816C34.5937 12.3066 32.7059 17.7369 31.4653 20.6126C29.522 25.1251 25.779 31.2303 17.8317 37.6844C21.8975 29.3001 18.7381 25.1609 11.0842 23.6644Z" fill="#3C6382"/>
<path d="M46.4667 32.1057C42.4498 31.5091 29.7715 39.6586 27.9864 41.5611C23.5848 45.5078 19.8353 50.4393 16.5031 56L15.525 55.5028C16.4781 54.0899 17.3834 52.6553 18.2409 51.199C21.3041 46.023 23.7837 40.6595 25.8916 35.1787C29.6623 25.2229 34.3802 20.1317 39.6605 17.9407C35.5474 26.4097 38.7362 30.5945 46.4667 32.1057Z" fill="#FBB040"/>
<path d="M33.9189 46.0361C34.5303 46.0361 35.0259 45.5405 35.0259 44.9292C35.0259 44.3179 34.5303 43.8223 33.9189 43.8223C33.3076 43.8223 32.812 44.3179 32.812 44.9292C32.812 45.5405 33.3076 46.0361 33.9189 46.0361Z" fill="#3C6382"/>
<path d="M41.5789 41.4355C42.1902 41.4355 42.6858 40.9399 42.6858 40.3286C42.6858 39.7173 42.1902 39.2217 41.5789 39.2217C40.9676 39.2217 40.472 39.7173 40.472 40.3286C40.472 40.9399 40.9676 41.4355 41.5789 41.4355Z" fill="#3C6382"/>
<path d="M43.584 38.0823C44.1953 38.0823 44.6909 37.5867 44.6909 36.9753C44.6909 36.364 44.1953 35.8684 43.584 35.8684C42.9726 35.8684 42.4771 36.364 42.4771 36.9753C42.4771 37.5867 42.9726 38.0823 43.584 38.0823Z" fill="#3C6382"/>
<path d="M23.9615 51.0361C24.5729 51.0361 25.0685 50.5405 25.0685 49.9292C25.0685 49.3178 24.5729 48.8223 23.9615 48.8223C23.3502 48.8223 22.8546 49.3178 22.8546 49.9292C22.8546 50.5405 23.3502 51.0361 23.9615 51.0361Z" fill="#3C6382"/>
<path d="M41.4419 29.4255C42.0533 29.4255 42.5489 28.9299 42.5489 28.3186C42.5489 27.7073 42.0533 27.2117 41.4419 27.2117C40.8306 27.2117 40.335 27.7073 40.335 28.3186C40.335 28.9299 40.8306 29.4255 41.4419 29.4255Z" fill="#3C6382"/>
<path d="M48.8497 25.2556C49.4611 25.2556 49.9567 24.76 49.9567 24.1487C49.9567 23.5373 49.4611 23.0417 48.8497 23.0417C48.2384 23.0417 47.7428 23.5373 47.7428 24.1487C47.7428 24.76 48.2384 25.2556 48.8497 25.2556Z" fill="#3C6382"/>
<path d="M44.2363 15.7317C44.8477 15.7317 45.3432 15.2361 45.3432 14.6247C45.3432 14.0134 44.8477 13.5178 44.2363 13.5178C43.625 13.5178 43.1294 14.0134 43.1294 14.6247C43.1294 15.2361 43.625 15.7317 44.2363 15.7317Z" fill="#3C6382"/>
</svg>
